<svg xmlns="http://www.w3.org/2000/svg" width="50" height="50" fill="none"><path fill="#F5F7FA" d="m3.663 1.54.036 1.548.625 1.2c.72 1.373 1.664 3.386 2.129 4.527l.327.777-.654 1.192c-.748 1.359-2.58 4.36-3.779 6.184-.443.676-.828 1.301-.843 1.38-.014.08-.08.655-.145 1.273-.13 1.315-.516 4.142-.872 6.467-.13.901-.298 2.086-.37 2.63L0 29.715l1.62 1.694c.894.93 2.384 2.456 3.307 3.4.923.938 2.39 2.464 3.27 3.394.872.923 1.599 1.679 1.606 1.664.007-.007-.13-.632-.305-1.388-.175-.763-.4-1.81-.509-2.325a37.246 37.246 0 0 0-.37-1.635l-.182-.69-1.105-1.112a169.18 169.18 0 0 0-2.652-2.58c-.858-.807-1.577-1.512-1.606-1.577-.066-.11.16-5.094.254-5.625.022-.167.196-.675.37-1.133.183-.458.531-1.425.786-2.137l.45-1.308.044.618c.029.334.08 1.279.123 2.1.117 2.238.03 1.97.894 2.74 1.076.944 3.3 2.863 4.15 3.575 1.213 1.003 1.424 1.235 1.424 1.533 0 .138-.11 1.04-.247 1.999a74.1 74.1 0 0 0-.334 2.587l-.088.843.56 1.882c.886 2.994.915 3.103 1.054 3.372.167.327.61.74 2.093 1.954l1.184.974.625-.276c1.024-.465 4.346-2.325 5.857-3.285l.196-.13v-1.054c0-.581-.022-1.272-.043-1.533l-.051-.48-2.079-1.475c-1.14-.814-2.267-1.613-2.492-1.773l-.414-.298-.008-.967v-.959h10.705l-.051-.53c-.051-.575-.182-2.958-.19-3.445 0-.385-.152-.567-1.344-1.613-1.969-1.73-2.66-2.37-2.688-2.515-.015-.08-.044-5.043-.051-11.023-.015-5.981-.044-10.894-.066-10.915-.036-.037-.995.203-5.879 1.46-3.946 1.01-6.445 1.62-6.663 1.62-.095 0-.378-.108-.625-.246-.494-.27-3.532-1.643-4.426-1.999A23.57 23.57 0 0 1 4.665.436C4.185.196 3.757 0 3.713 0c-.065 0-.08.407-.05 1.54Zm17.876 3.452c.022 1.01.022 1.032-.138 1.105-.283.13-1.032.283-2.907.589-2.354.392-4.854.893-5.58 1.119l-.582.189.509-.458c.276-.247 1.053-.96 1.73-1.584l1.22-1.141 1.722-.335c3.706-.712 3.975-.755 3.99-.632.007.066.029.582.036 1.148ZM13.967 15.21c.298.247 1.322 1.053 2.274 1.794 1.636 1.272 1.723 1.352 1.723 1.585 0 .378-.276 2.572-.582 4.629-.16 1.039-.348 2.412-.436 3.052-.08.64-.189 1.344-.24 1.562l-.094.4-.123-.763c-.175-1.105-.676-4.942-.814-6.177-.058-.581-.131-1.228-.153-1.446-.043-.37-.05-.385-.232-.342-1.2.27-2.362-.029-3.234-.828-.509-.465-.705-.821-.88-1.62l-.043-.197H7.114l.044-.312c.022-.167.08-.64.13-1.054l.095-.741h6.039l.545.458Z"/><path fill="#F5F7FA" fill-opacity=".4" d="M26.183 3.83c.029 2.07.05 4.185.058 4.701l.007.938.64.647a29.852 29.852 0 0 0 1.504 1.424l.864.763 1.788-1.81c.981-.995 2.682-2.688 3.793-3.757 1.105-1.068 2.108-2.063 2.224-2.216l.225-.276-.443-.581c-.756-.989-.88-1.098-1.431-1.192-.807-.146-2.151-.48-4.012-.981-.973-.27-2.369-.647-3.103-.843-.726-.19-1.49-.4-1.7-.465a5.435 5.435 0 0 0-.414-.11c-.022 0-.022 1.694 0 3.758Z"/><path fill="#F5F7FA" d="M44.728.952c-.473.458-1.723 1.642-2.769 2.63-2.136 2.035-4.011 3.932-4.011 4.063 0 .094 3.968 4.011 4.098 4.033.044.014.32-.204.618-.472l.53-.487-.24-.487-.24-.487.284-.64c.16-.348.734-1.526 1.28-2.608a74.547 74.547 0 0 0 1.27-2.61l.27-.631-.044-1.44c-.022-.799-.072-1.504-.109-1.569-.058-.102-.21.022-.937.705Z"/><path fill="url(#a)" d="M35.579 9.861c-.284.313-.633.712-.785.894l-.27.327.045.523.05.516-.443-.036c-.828-.08-2.114.232-2.972.712-.225.13-.712.53-1.076.901-.552.552-.719.77-1.002 1.345-.444.9-.582 1.555-.524 2.507.073 1.286.277 1.845 1.047 2.797 1.286 1.592 2.616 2.246 4.374 2.159 1.476-.08 2.384-.473 3.38-1.468 1.228-1.221 1.49-1.788 1.547-3.307.022-.792 0-1.148-.123-1.831a18.253 18.253 0 0 1-.153-.901c0-.03.364-.422.814-.88l.814-.82-.501-.516a71.805 71.805 0 0 0-1.635-1.541 89.665 89.665 0 0 1-1.606-1.483l-.48-.465-.501.567Zm-.894 4.426c.988.29 1.62.828 2.07 1.744.233.465.277.632.306 1.163.095 1.744-1.04 3.168-2.747 3.459-1.395.24-2.885-.56-3.502-1.875-.415-.887-.357-2.071.138-2.929.763-1.315 2.34-1.976 3.735-1.562Z"/><path fill="#F5F7FA" d="M43.289 13.684a45.89 45.89 0 0 0-1.417 1.359l-.545.545v4.73l-.211.327c-.233.364-1.519 1.635-2.66 2.63-1.446 1.273-1.395 1.207-1.62 2.16-.11.457-.37 1.583-.589 2.506a96.289 96.289 0 0 0-.596 2.667l-.196.996.494.603c.574.705 1.483 1.686 1.519 1.65.014-.015.182-.538.37-1.156.182-.618.495-1.62.691-2.216.189-.604.501-1.614.698-2.253l.348-1.163 2.042-2.013 2.05-2.013.05-1.22a88.57 88.57 0 0 1 .095-2.079l.044-.865.334-.247c.182-.13.785-.487 1.33-.792.552-.305 1.068-.61 1.155-.683l.16-.13-.349-.611a34.057 34.057 0 0 0-.908-1.482c-.305-.48-.72-1.141-.916-1.468-.196-.327-.385-.596-.428-.596-.037 0-.466.363-.945.814ZM26.183 17.36l.007 4.208.443.356c.247.19.727.589 1.068.887.342.298 1.018.864 1.512 1.257l.886.72v.45c0 .247.066 1.482.146 2.74.08 1.257.145 2.514.138 2.797v.509l-.589.509a94.583 94.583 0 0 1-3.219 2.703c-.72.581-1.359 1.119-1.424 1.192-.095.101-.131.37-.167 1.242-.03.61-.066 1.28-.088 1.483l-.043.363 1.046.538c1.025.53 2.238 1.22 3.8 2.173.444.269.975.596 1.185.72l.386.232.922-.778c1.744-1.49 1.54-1.199 2.122-3.074.276-.9.633-2.02.792-2.5.16-.472.27-.9.24-.944-.08-.131-1.133-1.483-1.853-2.384l-.632-.792.109-.378c.058-.21.232-1.017.392-1.795.16-.777.4-1.89.538-2.47.24-1.003.516-2.29.581-2.697l.03-.188-.735-.044c-2.027-.124-3.88-1.22-5.26-3.117-1.381-1.89-1.694-3.75-.989-5.887l.262-.777-.669-.734c-.4-.429-.734-.727-.814-.727-.13 0-.13.13-.123 4.208Z"/><path fill="#F5F7FA" fill-opacity=".4" d="m46.806 19.78-.843.364-.05.705a44.514 44.514 0 0 0-.044 1.976v1.28l-1.069 1.01c-1.89 1.787-3.284 3.211-3.32 3.386-.473 2.107-.887 3.88-.989 4.23-.08.246-.4 1.489-.72 2.768-.32 1.279-.697 2.747-.842 3.27-.138.516-.247.974-.233 1.003.007.036.298-.262.64-.654.348-.393 1.111-1.272 1.707-1.948a132.87 132.87 0 0 1 2.02-2.282 67.88 67.88 0 0 0 1.563-1.816c1.3-1.585 3.604-4.28 4.084-4.767l.501-.51-.4-2.724c-.9-6.206-.806-5.668-1.01-5.661-.08 0-.53.167-.995.37ZM5.443 26.72c-.058.11-.16.4-.233.64l-.123.429.21.188c.11.11.916.909 1.781 1.788l1.577 1.599.087-.37c.051-.197.175-.582.284-.844l.203-.48-1.068-.944c-1.257-1.126-2.464-2.158-2.55-2.187-.037-.015-.11.065-.168.181Zm18.16 14.476c-.102.16-4.266 2.478-4.455 2.478-.058 0-2.718 1.453-2.943 1.613-.116.08-.203.167-.203.197 0 .167 2.565 4.25 2.797 4.44.095.08 10.094.109 10.312.029.066-.022.19-.211.284-.415.174-.377 1.366-2.318 2.027-3.299l.349-.523-.96-.647c-1.271-.85-2.645-1.671-3.364-2.013a61.825 61.825 0 0 1-2.093-1.104c-1.475-.807-1.671-.887-1.751-.756Z"/><defs><linearGradient id="a" x1="25.5" x2="43.5" y1="25" y2="8.5" gradientUnits="userSpaceOnUse"><stop stop-color="#0F3868"/><stop offset=".5" stop-color="#0071E3"/><stop offset="1" stop-color="#0F3868"/></linearGradient></defs></svg>